<?xml version="1.0" standalone="no"?>
<!DOCTYPE svg PUBLIC "-//W3C//DTD SVG 20010904//EN"
 "http://www.w3.org/TR/2001/REC-SVG-20010904/DTD/svg10.dtd">
<svg version="1.0" xmlns="http://www.w3.org/2000/svg"
 width="606.000000pt" height="729.000000pt" viewBox="0 0 606.000000 729.000000"
 preserveAspectRatio="xMidYMid meet">

<g transform="translate(0.000000,729.000000) scale(0.100000,-0.100000)"
fill="#000000" stroke="none">
<path d="M1781 6838 c-23 -150 -31 -312 -21 -445 8 -111 30 -260 46 -315 13
-44 -352 -10 -611 57 -229 58 -436 150 -555 246 l-58 47 -6 -30 c-17 -86 1
-599 29 -838 84 -700 291 -967 735 -947 145 7 229 29 400 105 259 115 547 209
815 267 291 62 369 70 770 69 318 0 376 -2 502 -22 519 -79 878 -234 1096
-473 36 -39 67 -67 70 -62 16 25 29 156 25 237 -14 247 -165 453 -493 673 -96
64 -234 141 -552 309 -430 226 -585 323 -731 459 -66 61 -137 153 -168 218
-10 20 -21 37 -25 37 -14 0 -41 -146 -46 -252 l-6 -106 -36 5 c-135 21 -352
112 -512 214 -203 130 -444 353 -574 532 -38 52 -73 96 -76 96 -3 1 -11 -36
-18 -81z"/>
<path d="M3298 4863 c-27 -2 -48 -6 -48 -9 0 -3 9 -23 21 -46 86 -169 -36
-368 -225 -368 -66 0 -128 23 -160 59 -11 11 -24 21 -30 21 -26 0 -142 -214
-202 -372 -34 -90 -94 -286 -94 -308 0 -16 43 -10 154 24 194 58 412 90 731
107 110 6 233 8 273 5 39 -4 72 -5 72 -3 0 3 -10 26 -21 52 -17 39 -20 62 -17
114 6 74 23 114 69 160 65 65 164 94 244 72 69 -19 68 -15 19 -151 -25 -69
-48 -144 -51 -167 -6 -42 -5 -43 23 -43 62 0 147 84 160 159 11 62 21 69 33
25 22 -80 6 -164 -45 -231 l-25 -32 23 -5 c13 -3 73 -12 133 -21 511 -75 1133
-248 1453 -403 34 -17 62 -28 62 -26 0 14 -69 139 -110 199 -152 223 -396 425
-687 566 -118 58 -122 61 -154 117 -129 229 -491 406 -996 488 -96 15 -501 27
-605 17z"/>
<path d="M2666 4774 c-747 -197 -1312 -572 -1671 -1109 -134 -200 -271 -516
-334 -770 -68 -274 -105 -787 -61 -840 29 -35 48 -10 110 144 55 135 117 246
189 337 l46 58 2 -49 c22 -449 56 -660 153 -955 109 -333 314 -695 508 -899
59 -62 103 -80 115 -46 4 8 -1 67 -10 132 -21 160 -13 479 16 648 86 505 292
916 625 1251 353 354 824 578 1387 661 111 16 118 16 144 -1 35 -23 30 -52
-24 -144 -91 -153 -166 -382 -191 -585 -16 -123 -8 -409 14 -527 51 -274 142
-507 272 -702 36 -53 64 -105 62 -115 -7 -35 -46 -44 -173 -39 -247 9 -544
131 -785 320 -46 36 -89 66 -96 66 -21 0 -25 -46 -13 -167 43 -469 183 -807
443 -1069 151 -152 226 -198 226 -140 0 13 -25 75 -54 137 -91 188 -135 383
-120 529 9 99 13 101 81 43 132 -115 367 -246 558 -313 346 -121 711 -147
1095 -79 229 40 340 76 340 110 0 23 -22 33 -199 89 -152 49 -383 159 -511
245 -403 270 -653 621 -740 1039 -46 219 -46 456 0 638 24 91 90 241 140 313
88 127 246 265 395 342 168 87 311 118 615 134 118 6 222 13 230 16 73 24
-538 133 -940 168 -825 71 -1543 -20 -2142 -272 -70 -29 -138 -53 -151 -53
-58 0 -68 54 -42 216 71 436 300 905 598 1222 28 28 44 52 36 51 -8 0 -72 -16
-143 -35z"/>
<path d="M4330 2918 c-195 -298 -165 -664 83 -1002 81 -110 288 -314 422 -414
115 -86 276 -173 358 -193 58 -14 122 -7 148 17 36 32 42 86 30 251 -20 263
-80 441 -175 520 -20 16 -125 68 -234 116 -244 108 -333 160 -423 244 -123
116 -160 201 -168 386 l-6 128 -35 -53z"/>
<path d="M3098 2686 c-78 -33 -227 -122 -328 -197 -462 -340 -778 -809 -879
-1304 -32 -156 -46 -359 -34 -500 12 -129 26 -175 54 -175 20 0 22 7 59 170
94 409 280 748 555 1008 93 88 229 189 312 230 l41 21 84 -85 c45 -47 112
-108 148 -135 121 -91 319 -179 405 -179 l33 0 -67 133 c-141 277 -213 551
-227 857 -7 155 -17 180 -67 180 -17 -1 -58 -11 -89 -24z"/>
</g>
</svg>
