<?xml version="1.0" standalone="no"?>
<!DOCTYPE svg PUBLIC "-//W3C//DTD SVG 20010904//EN"
 "http://www.w3.org/TR/2001/REC-SVG-20010904/DTD/svg10.dtd">
<svg version="1.0" xmlns="http://www.w3.org/2000/svg"
 width="3508.000000pt" height="2480.000000pt" viewBox="0 0 3508.000000 2480.000000"
 preserveAspectRatio="xMidYMid meet">

<g transform="translate(0.000000,2480.000000) scale(0.100000,-0.100000)"
fill="#000000" stroke="none">
<path d="M16026 17832 c-19 -31 -39 -220 -43 -413 -6 -228 3 -349 38 -518 10
-51 19 -94 19 -96 0 -11 -86 -13 -200 -5 -506 39 -1021 209 -1248 414 l-39 36
-7 -163 c-8 -188 7 -583 30 -807 53 -526 171 -880 349 -1055 218 -213 606
-242 979 -74 455 206 945 350 1397 411 227 30 873 33 1099 5 667 -82 1183
-304 1448 -622 22 -27 44 -47 47 -44 13 14 35 168 35 249 0 97 -33 247 -70
319 -93 184 -253 350 -490 510 -187 126 -302 191 -785 443 -282 148 -387 208
-562 324 -215 142 -382 311 -450 453 l-26 56 -13 -31 c-22 -53 -46 -190 -52
-303 l-7 -108 -70 14 c-163 33 -368 117 -540 221 -284 171 -595 457 -769 707
-62 88 -63 89 -70 77z"/>
<path d="M17915 15354 c-11 -2 -45 -6 -76 -9 l-57 -6 29 -57 c93 -182 -1 -387
-201 -438 -93 -24 -185 -1 -270 66 l-38 30 -48 -72 c-95 -145 -198 -385 -268
-627 -47 -162 -47 -162 94 -117 298 97 682 147 1130 150 l236 1 -26 45 c-22
39 -25 57 -25 135 0 81 3 95 29 143 81 145 244 202 399 140 19 -7 27 -16 24
-27 -3 -9 -31 -87 -61 -174 -31 -87 -56 -172 -56 -189 0 -30 0 -31 46 -25 86
9 165 101 186 216 l12 64 17 -49 c34 -97 17 -205 -46 -287 -42 -55 -65 -45
185 -82 607 -91 1249 -267 1692 -465 59 -27 108 -46 108 -44 0 15 -81 162
-129 233 -140 211 -405 452 -651 593 -95 54 -217 116 -271 138 -45 18 -60 30
-74 59 -115 242 -442 446 -900 561 -177 45 -356 76 -515 90 -104 9 -426 12
-475 4z"/>
<path d="M17105 15249 c-1452 -380 -2318 -1281 -2516 -2619 -26 -171 -39 -613
-19 -659 30 -72 65 -41 123 110 79 203 175 373 277 489 l39 45 1 -165 c1 -558
144 -1123 408 -1605 126 -230 358 -546 442 -603 19 -12 43 -22 55 -20 18 3 20
10 20 63 0 33 -6 106 -13 163 -15 125 -16 412 -2 553 54 550 267 1087 594
1499 95 120 322 341 448 435 385 289 827 471 1367 561 204 34 251 26 251 -40
0 -17 -11 -51 -25 -76 -189 -333 -275 -647 -275 -1006 0 -441 136 -905 366
-1250 70 -104 76 -117 66 -139 -17 -36 -50 -45 -161 -45 -311 0 -715 164
-1025 417 -43 35 -84 62 -90 60 -17 -6 -12 -254 8 -382 81 -522 247 -864 564
-1166 114 -108 186 -157 215 -146 27 10 20 37 -41 159 -115 227 -170 452 -159
648 4 59 9 114 13 123 5 13 21 4 82 -47 213 -176 487 -321 775 -411 238 -74
456 -105 735 -105 223 0 384 16 588 58 258 54 338 87 315 131 -12 22 -34 31
-161 66 -524 146 -1043 513 -1324 935 -140 210 -231 441 -283 715 -24 127 -29
458 -9 585 54 341 244 633 538 830 258 173 490 234 933 246 105 3 201 7 214
10 131 27 -536 152 -1114 210 -218 21 -841 30 -1072 15 -544 -36 -1055 -146
-1463 -317 -210 -87 -247 -99 -278 -88 -56 20 -60 64 -26 269 88 528 362 1084
723 1467 35 38 60 68 55 67 -5 0 -76 -18 -159 -40z"/>
<path d="M19116 13028 c-73 -97 -143 -261 -166 -394 -20 -112 -8 -308 25 -419
89 -303 313 -600 659 -879 170 -137 383 -259 496 -285 120 -28 200 -3 219 66
20 70 9 323 -20 473 -31 160 -94 313 -157 382 -45 49 -67 60 -322 173 -226
100 -277 126 -379 192 -244 158 -353 368 -332 641 4 45 5 82 4 82 -1 0 -13
-15 -27 -32z"/>
<path d="M17538 12682 c-234 -119 -468 -292 -678 -502 -426 -425 -683 -931
-751 -1475 -14 -113 -14 -429 0 -514 12 -73 33 -111 61 -111 21 0 30 25 50
139 6 35 30 128 52 205 123 430 308 756 588 1036 126 127 288 254 402 314 l74
39 94 -97 c52 -54 123 -121 158 -148 130 -104 300 -191 447 -229 83 -22 105
-23 105 -7 0 7 -31 74 -69 148 -179 348 -263 664 -280 1052 -9 197 -14 208
-91 208 -38 0 -71 -12 -162 -58z"/>
<path d="M8590 8261 c0 -10 26 -78 58 -152 l57 -134 3 -742 2 -743 205 0 205
0 2 441 3 441 65 -99 c36 -54 76 -104 90 -110 38 -19 633 -18 649 1 8 9 11 61
9 162 l-3 149 -407 3 -408 2 0 235 0 235 433 0 c242 0 438 4 446 9 12 8 15 39
15 148 1 76 -2 146 -6 156 -7 16 -50 17 -713 17 -680 0 -705 -1 -705 -19z"/>
<path d="M10260 8261 c0 -11 26 -79 58 -153 l57 -133 3 -743 2 -743 205 1 205
1 2 441 3 440 57 -89 c90 -140 51 -128 409 -131 211 -2 315 0 329 8 20 10 20
18 18 163 l-3 152 -407 3 -408 2 0 235 0 235 433 0 c242 0 438 4 446 9 12 8
15 39 15 148 1 76 -2 146 -6 156 -7 16 -50 17 -713 17 -689 0 -705 0 -705 -19z"/>
<path d="M12010 7385 l0 -895 203 2 202 3 3 465 2 465 64 -96 c37 -56 74 -100
90 -107 20 -9 121 -12 371 -12 l345 0 0 -360 0 -360 205 0 205 0 0 895 0 895
-205 0 -205 0 -2 -367 -3 -368 -432 -3 -433 -2 0 370 0 370 -205 0 -205 0 0
-895z"/>
<path d="M14195 8205 c-4 -42 -4 -114 0 -160 7 -76 10 -86 29 -90 11 -3 190
-6 396 -7 336 -3 379 -5 415 -21 58 -26 102 -73 127 -136 22 -55 23 -67 26
-509 l3 -453 -288 3 -288 3 -52 28 c-110 57 -150 193 -93 307 23 45 45 64 105
92 47 21 66 23 308 26 141 2 257 8 257 12 0 13 -133 212 -169 253 l-33 37
-204 0 c-243 0 -322 -13 -442 -71 -138 -67 -224 -167 -266 -308 -20 -68 -21
-236 -2 -308 41 -153 135 -266 278 -333 154 -72 187 -75 756 -75 l504 0 19 24
c18 22 19 47 19 606 0 633 -2 667 -56 802 -53 134 -133 222 -259 284 -130 64
-176 69 -660 69 l-423 0 -7 -75z"/>
<path d="M15840 8270 c0 -5 34 -50 75 -99 l75 -89 2 -793 3 -794 177 -3 178
-2 2 577 3 578 304 -365 c688 -824 634 -763 691 -780 19 -5 95 -10 168 -10
l132 0 0 895 0 895 -175 0 -175 0 0 -571 c0 -324 -4 -569 -9 -567 -9 3 -148
168 -646 768 -148 179 -280 335 -294 348 -23 22 -29 22 -267 22 -150 0 -244
-4 -244 -10z"/>
<path d="M18040 7416 l0 -865 24 -28 24 -28 454 0 c399 0 463 2 537 18 182 39
315 109 431 227 107 108 163 210 212 388 19 67 22 103 22 277 0 233 -13 297
-88 450 -97 198 -264 325 -516 393 l-95 26 -502 4 -503 3 0 -865z m998 505
c181 -66 273 -257 259 -536 -16 -307 -136 -482 -366 -531 -86 -18 -451 -20
-469 -2 -9 9 -12 146 -12 556 l0 543 263 -3 c243 -4 267 -6 325 -27z"/>
<path d="M19950 8265 c0 -8 27 -80 60 -159 l60 -144 0 -707 0 -706 24 -24 c13
-13 39 -27 58 -30 19 -4 250 -5 514 -2 538 5 561 7 712 77 223 104 335 330
277 555 -32 121 -115 225 -226 280 -69 35 -67 33 -38 52 66 46 122 111 157
182 36 73 37 78 37 185 0 99 -3 117 -26 167 -68 145 -226 245 -439 279 -39 6
-289 10 -617 10 -484 0 -553 -2 -553 -15z m1083 -316 c53 -14 111 -69 126
-119 19 -65 -1 -142 -49 -190 -21 -21 -56 -43 -77 -49 -22 -6 -145 -11 -295
-11 l-258 0 0 190 0 190 258 0 c150 0 273 -5 295 -11z m90 -702 c85 -42 112
-87 112 -186 0 -59 -5 -85 -23 -119 -29 -54 -89 -97 -153 -111 -72 -16 -551
-15 -567 1 -9 9 -12 74 -12 231 l0 218 293 -3 292 -3 58 -28z"/>
<path d="M22105 8235 c-12 -79 -2 -265 15 -275 9 -6 171 -10 381 -10 409 0
434 -3 506 -65 28 -23 50 -55 65 -93 22 -56 23 -65 26 -510 l3 -453 -288 3
c-280 3 -289 4 -336 27 -91 44 -140 149 -118 253 15 70 52 115 120 147 55 25
61 26 306 29 138 2 254 7 258 11 8 8 -127 218 -171 264 l-27 29 -235 -5 c-199
-3 -245 -7 -300 -24 -279 -86 -422 -298 -390 -573 17 -138 52 -220 128 -303
79 -84 178 -137 327 -174 62 -16 129 -18 583 -18 l514 0 19 24 c19 24 20 41
17 640 -4 607 -4 617 -27 691 -53 177 -146 293 -286 360 -136 66 -178 70 -659
70 l-425 0 -6 -45z"/>
<path d="M23832 7488 l3 -793 30 -60 c17 -32 46 -72 66 -88 69 -54 98 -57 629
-57 288 0 491 4 500 10 12 7 16 38 18 151 2 78 1 152 -2 165 l-6 24 -408 2
-407 3 -3 718 -2 717 -211 0 -210 0 3 -792z"/>
<path d="M25250 7495 c0 -697 2 -790 16 -832 23 -69 65 -117 126 -144 l53 -24
506 -3 c459 -3 508 -1 523 14 14 14 16 38 14 172 l-3 157 -399 3 c-274 1 -403
6 -413 13 -11 9 -13 140 -13 720 l0 709 -205 0 -205 0 0 -785z"/>
</g>
</svg>
